<?xml version="1.0" encoding="utf-8"?>
<!-- Generator: Adobe Illustrator 17.0.0, SVG Export Plug-In . SVG Version: 6.00 Build 0)  -->
<!DOCTYPE svg PUBLIC "-//W3C//DTD SVG 1.1//EN" "http://www.w3.org/Graphics/SVG/1.1/DTD/svg11.dtd">
<svg version="1.1" id="Layer_1" xmlns="http://www.w3.org/2000/svg" xmlns:xlink="http://www.w3.org/1999/xlink" x="0px" y="0px"
	 width="17px" height="16px" viewBox="0 0 17 16" enable-background="new 0 0 17 16" xml:space="preserve">
<path fill="#FC7614" d="M9.067,0.43l1.99,4.031c0.112,0.228,0.33,0.386,0.58,0.422l4.45,0.647c0.422,0.062,0.713,0.454,0.651,0.876
	c-0.025,0.167-0.103,0.322-0.224,0.44l-3.22,3.138c-0.182,0.177-0.265,0.433-0.222,0.683l0.76,4.431
	c0.072,0.42-0.211,0.819-0.632,0.891c-0.167,0.028-0.339,0.001-0.488-0.078l-3.98-2.092c-0.225-0.118-0.493-0.118-0.718,0
	l-3.98,2.092c-0.378,0.198-0.844,0.052-1.042-0.326c-0.078-0.149-0.105-0.32-0.077-0.487l0.76-4.431
	c0.043-0.25-0.04-0.506-0.222-0.683l-3.22-3.138C-0.072,6.548-0.078,6.059,0.22,5.754c0.118-0.121,0.273-0.2,0.441-0.224L5.11,4.883
	c0.251-0.037,0.468-0.195,0.58-0.422L7.68,0.43c0.19-0.383,0.654-0.54,1.037-0.35C8.869,0.155,8.992,0.278,9.067,0.43z"/>
</svg>
